<svg width="172" height="160" viewBox="0 0 172 160" fill="none" xmlns="http://www.w3.org/2000/svg">
<g filter="url(#filter0_d_30_3)">
<mask id="path-1-inside-1_30_3" fill="white">
<path d="M73.4825 10.5344C81.0997 12.0523 86.0443 19.4576 84.5268 27.0748L79.4887 52.361L102.476 56.9412C110.094 58.4589 115.038 65.8651 113.52 73.4826C112.002 81.0998 104.597 86.0446 96.98 84.5269L73.9924 79.9467L69.4122 102.934C67.8945 110.552 60.4891 115.496 52.8718 113.979C45.2544 112.461 40.3088 105.055 41.8265 97.438L46.4067 74.4504L21.1205 69.4123C13.5033 67.8945 8.55872 60.4891 10.0762 52.8719C11.5939 45.2545 18.9994 40.309 26.6168 41.8266L51.903 46.8647L56.9411 21.5786C58.459 13.9613 65.8651 9.01671 73.4825 10.5344Z"/>
</mask>
<path d="M73.4825 10.5344C81.0997 12.0523 86.0443 19.4576 84.5268 27.0748L79.4887 52.361L102.476 56.9412C110.094 58.4589 115.038 65.8651 113.52 73.4826C112.002 81.0998 104.597 86.0446 96.98 84.5269L73.9924 79.9467L69.4122 102.934C67.8945 110.552 60.4891 115.496 52.8718 113.979C45.2544 112.461 40.3088 105.055 41.8265 97.438L46.4067 74.4504L21.1205 69.4123C13.5033 67.8945 8.55872 60.4891 10.0762 52.8719C11.5939 45.2545 18.9994 40.309 26.6168 41.8266L51.903 46.8647L56.9411 21.5786C58.459 13.9613 65.8651 9.01671 73.4825 10.5344Z" fill="#16C8AA"/>
<path d="M73.4825 10.5344L74.0688 7.59227L74.0687 7.59225L73.4825 10.5344ZM84.5268 27.0748L87.469 27.6611L87.469 27.661L84.5268 27.0748ZM79.4887 52.361L76.5465 51.7748L75.9603 54.717L78.9025 55.3032L79.4887 52.361ZM113.52 73.4826L116.463 74.0689L116.463 74.0688L113.52 73.4826ZM96.98 84.5269L97.5662 81.5847L96.98 84.5269ZM73.9924 79.9467L74.5786 77.0046L71.6364 76.4184L71.0502 79.3605L73.9924 79.9467ZM69.4122 102.934L72.3544 103.521L69.4122 102.934ZM52.8718 113.979L52.2856 116.921L52.2857 116.921L52.8718 113.979ZM46.4067 74.4504L49.3488 75.0366L49.9351 72.0945L46.9929 71.5083L46.4067 74.4504ZM21.1205 69.4123L20.5342 72.3545L20.5343 72.3545L21.1205 69.4123ZM10.0762 52.8719L7.13401 52.2857L7.13399 52.2858L10.0762 52.8719ZM26.6168 41.8266L27.203 38.8844L27.2029 38.8844L26.6168 41.8266ZM51.903 46.8647L51.3168 49.8069L54.2589 50.3931L54.8451 47.4509L51.903 46.8647ZM56.9411 21.5786L53.9989 20.9923L53.9989 20.9923L56.9411 21.5786ZM73.4825 10.5344L72.8962 13.4766C78.8885 14.6707 82.7784 20.4963 81.5846 26.4887L84.5268 27.0748L87.469 27.661C89.3102 18.4189 83.3108 9.4339 74.0688 7.59227L73.4825 10.5344ZM84.5268 27.0748L81.5846 26.4886L76.5465 51.7748L79.4887 52.361L82.4308 52.9472L87.469 27.6611L84.5268 27.0748ZM79.4887 52.361L78.9025 55.3032L101.89 59.8833L102.476 56.9412L103.062 53.999L80.0749 49.4189L79.4887 52.361ZM102.476 56.9412L101.89 59.8833C107.882 61.0773 111.772 66.9035 110.578 72.8964L113.52 73.4826L116.463 74.0688C118.304 64.8267 112.305 55.8406 103.062 53.999L102.476 56.9412ZM113.52 73.4826L110.578 72.8963C109.384 78.8887 103.559 82.7786 97.5662 81.5847L96.98 84.5269L96.3938 87.4691C105.636 89.3105 114.621 83.3108 116.463 74.0689L113.52 73.4826ZM96.98 84.5269L97.5662 81.5847L74.5786 77.0046L73.9924 79.9467L73.4062 82.8889L96.3938 87.4691L96.98 84.5269ZM73.9924 79.9467L71.0502 79.3605L66.4701 102.348L69.4122 102.934L72.3544 103.521L76.9346 80.5329L73.9924 79.9467ZM69.4122 102.934L66.4701 102.348C65.2761 108.34 59.4505 112.23 53.4579 111.036L52.8718 113.979L52.2857 116.921C61.5278 118.762 70.5129 112.763 72.3544 103.521L69.4122 102.934ZM52.8718 113.979L53.458 111.036C47.4652 109.842 43.5748 104.017 44.7687 98.0243L41.8265 97.438L38.8844 96.8518C37.0428 106.094 43.0435 115.079 52.2856 116.921L52.8718 113.979ZM41.8265 97.438L44.7687 98.0243L49.3488 75.0366L46.4067 74.4504L43.4645 73.8642L38.8844 96.8518L41.8265 97.438ZM46.4067 74.4504L46.9929 71.5083L21.7067 66.4701L21.1205 69.4123L20.5343 72.3545L45.8205 77.3926L46.4067 74.4504ZM21.1205 69.4123L21.7068 66.4702C15.7145 65.2761 11.8246 59.4504 13.0184 53.458L10.0762 52.8719L7.13399 52.2858C5.29285 61.5278 11.2922 70.5129 20.5342 72.3545L21.1205 69.4123ZM10.0762 52.8719L13.0183 53.4581C14.2123 47.4654 20.0384 43.575 26.0306 44.7688L26.6168 41.8266L27.2029 38.8844C17.9605 37.0431 8.97543 43.0436 7.13401 52.2857L10.0762 52.8719ZM26.6168 41.8266L26.0306 44.7688L51.3168 49.8069L51.903 46.8647L52.4892 43.9226L27.203 38.8844L26.6168 41.8266ZM51.903 46.8647L54.8451 47.4509L59.8833 22.1648L56.9411 21.5786L53.9989 20.9923L48.9608 46.2785L51.903 46.8647ZM56.9411 21.5786L59.8833 22.1648C61.0773 16.1726 66.9036 12.2826 72.8963 13.4766L73.4825 10.5344L74.0687 7.59225C64.8266 5.75082 55.8406 11.7499 53.9989 20.9923L56.9411 21.5786Z" fill="#FFFFF5" mask="url(#path-1-inside-1_30_3)"/>
</g>
<g filter="url(#filter1_d_30_3)">
<mask id="path-3-inside-2_30_3" fill="white">
<path d="M137.525 81.9616C142.705 83.1087 145.974 88.2376 144.827 93.4169L141.019 110.61L156.649 114.071C161.828 115.218 165.097 120.347 163.95 125.527C162.803 130.706 157.674 133.974 152.495 132.827L136.865 129.365L133.403 144.995C132.256 150.174 127.127 153.443 121.948 152.296C116.769 151.149 113.501 146.02 114.648 140.841L118.109 125.211L100.917 121.403C95.7375 120.256 92.4685 115.128 93.6153 109.949C94.7624 104.77 99.8913 101.501 105.071 102.648L122.263 106.456L126.071 89.263C127.218 84.0839 132.346 80.8148 137.525 81.9616Z"/>
</mask>
<path d="M137.525 81.9616C142.705 83.1087 145.974 88.2376 144.827 93.4169L141.019 110.61L156.649 114.071C161.828 115.218 165.097 120.347 163.95 125.527C162.803 130.706 157.674 133.974 152.495 132.827L136.865 129.365L133.403 144.995C132.256 150.174 127.127 153.443 121.948 152.296C116.769 151.149 113.501 146.02 114.648 140.841L118.109 125.211L100.917 121.403C95.7375 120.256 92.4685 115.128 93.6153 109.949C94.7624 104.77 99.8913 101.501 105.071 102.648L122.263 106.456L126.071 89.263C127.218 84.0839 132.346 80.8148 137.525 81.9616Z" fill="#16C8AA"/>
<path d="M137.525 81.9616L138.174 79.0326L138.174 79.0326L137.525 81.9616ZM141.019 110.61L138.09 109.961L137.441 112.89L140.37 113.539L141.019 110.61ZM163.95 125.527L166.879 126.175L166.879 126.175L163.95 125.527ZM152.495 132.827L153.144 129.898L152.495 132.827ZM136.865 129.365L137.514 126.436L134.585 125.787L133.936 128.716L136.865 129.365ZM133.403 144.995L136.332 145.644L133.403 144.995ZM121.948 152.296L121.299 155.225L121.299 155.225L121.948 152.296ZM118.109 125.211L121.038 125.86L121.687 122.931L118.758 122.282L118.109 125.211ZM93.6153 109.949L90.6863 109.3L90.6863 109.301L93.6153 109.949ZM105.071 102.648L104.422 105.577L105.071 102.648ZM122.263 106.456L121.615 109.385L124.544 110.034L125.192 107.104L122.263 106.456ZM137.525 81.9616L136.877 84.8907C140.438 85.6795 142.686 89.2065 141.898 92.7682L144.827 93.4169L147.756 94.0656C149.261 87.2686 144.971 80.538 138.174 79.0326L137.525 81.9616ZM144.827 93.4169L141.898 92.7682L138.09 109.961L141.019 110.61L143.948 111.258L147.756 94.0656L144.827 93.4169ZM141.019 110.61L140.37 113.539L156 117L156.649 114.071L157.298 111.142L141.668 107.681L141.019 110.61ZM156.649 114.071L156 117C159.562 117.789 161.81 121.316 161.021 124.878L163.95 125.527L166.879 126.175C168.384 119.378 164.094 112.648 157.298 111.142L156.649 114.071ZM163.95 125.527L161.021 124.878C160.232 128.439 156.705 130.687 153.144 129.898L152.495 132.827L151.846 135.756C158.643 137.261 165.373 132.972 166.879 126.175L163.95 125.527ZM152.495 132.827L153.144 129.898L137.514 126.436L136.865 129.365L136.216 132.294L151.846 135.756L152.495 132.827ZM136.865 129.365L133.936 128.716L130.474 144.346L133.403 144.995L136.332 145.644L139.794 130.014L136.865 129.365ZM133.403 144.995L130.474 144.346C129.685 147.908 126.158 150.156 122.597 149.367L121.948 152.296L121.299 155.225C128.096 156.731 134.827 152.441 136.332 145.644L133.403 144.995ZM121.948 152.296L122.597 149.367C119.036 148.578 116.788 145.052 117.577 141.49L114.648 140.841L111.719 140.193C110.214 146.989 114.502 153.72 121.299 155.225L121.948 152.296ZM114.648 140.841L117.577 141.49L121.038 125.86L118.109 125.211L115.18 124.563L111.719 140.193L114.648 140.841ZM118.109 125.211L118.758 122.282L101.565 118.474L100.917 121.403L100.268 124.333L117.461 128.14L118.109 125.211ZM100.917 121.403L101.565 118.474C98.0037 117.686 95.7558 114.159 96.5444 110.598L93.6153 109.949L90.6863 109.301C89.1812 116.098 93.4714 122.827 100.268 124.333L100.917 121.403ZM93.6153 109.949L96.5443 110.598C97.3331 107.036 100.86 104.788 104.422 105.577L105.071 102.648L105.719 99.719C98.9223 98.2136 92.1916 102.504 90.6863 109.3L93.6153 109.949ZM105.071 102.648L104.422 105.577L121.615 109.385L122.263 106.456L122.912 103.527L105.719 99.719L105.071 102.648ZM122.263 106.456L125.192 107.104L129 89.9117L126.071 89.263L123.142 88.6143L119.334 105.807L122.263 106.456ZM126.071 89.263L129 89.9117C129.789 86.35 133.315 84.1021 136.877 84.8907L137.525 81.9616L138.174 79.0326C131.377 77.5276 124.647 81.8178 123.142 88.6143L126.071 89.263Z" fill="#FFFFF5" mask="url(#path-3-inside-2_30_3)"/>
</g>
<defs>
<filter id="filter0_d_30_3" x="9.80249" y="10.2605" width="108.992" height="107.992" filterUnits="userSpaceOnUse" color-interpolation-filters="sRGB">
<feFlood flood-opacity="0" result="BackgroundImageFix"/>
<feColorMatrix in="SourceAlpha" type="matrix" values="0 0 0 0 0 0 0 0 0 0 0 0 0 0 0 0 0 0 127 0" result="hardAlpha"/>
<feOffset dx="5" dy="4"/>
<feComposite in2="hardAlpha" operator="out"/>
<feColorMatrix type="matrix" values="0 0 0 0 0.960784 0 0 0 0 0.560784 0 0 0 0 0.105882 0 0 0 1 0"/>
<feBlend mode="normal" in2="BackgroundImageFix" result="effect1_dropShadow_30_3"/>
<feBlend mode="normal" in="SourceGraphic" in2="effect1_dropShadow_30_3" result="shape"/>
</filter>
<filter id="filter1_d_30_3" x="93.3862" y="81.7324" width="75.793" height="74.7932" filterUnits="userSpaceOnUse" color-interpolation-filters="sRGB">
<feFlood flood-opacity="0" result="BackgroundImageFix"/>
<feColorMatrix in="SourceAlpha" type="matrix" values="0 0 0 0 0 0 0 0 0 0 0 0 0 0 0 0 0 0 127 0" result="hardAlpha"/>
<feOffset dx="5" dy="4"/>
<feComposite in2="hardAlpha" operator="out"/>
<feColorMatrix type="matrix" values="0 0 0 0 0.960784 0 0 0 0 0.560784 0 0 0 0 0.105882 0 0 0 1 0"/>
<feBlend mode="normal" in2="BackgroundImageFix" result="effect1_dropShadow_30_3"/>
<feBlend mode="normal" in="SourceGraphic" in2="effect1_dropShadow_30_3" result="shape"/>
</filter>
</defs>
</svg>
